<?xml version="1.0" encoding="UTF-8"?>
<svg id="Layer_1" xmlns="http://www.w3.org/2000/svg" version="1.1" viewBox="0 0 1770.8 453.2">
  <!-- Generator: Adobe Illustrator 29.4.0, SVG Export Plug-In . SVG Version: 2.1.0 Build 152)  -->
  <defs>
    <style>
      .st0 {
        fill: #1a1a1a;
      }
    </style>
  </defs>
  <path class="st0" d="M273.2,282.7c-11.5-.1-11.4-6.8-11.3-18.3l.4-45.8c-1-33.8-22-57.3-50.1-61.2-16.8-2.7-33.9,2.9-45.9,15l4.8,6.4c3.9-2.7,8.3-4.5,13-5.1,2.7-.4,5.4-.4,8.1,0h.1c.9,0,1.7.2,2.5.5.3,0,.5.1.5.1,3.9,1.1,6.5,4.6,6.5,8.6,0,20.6-65.7,28-65.7,69.3s19.6,40.1,50,40.1c15.2.1,30-4.6,42.3-13.5,2.7,6,8.7,12.4,22.7,12.5,9.5,0,18.7-2.7,26.8-7.6v-1.4h0c-1.6.3-3.2.4-4.8.4h0ZM226.8,273.3c-6.5,3.7-13.9,5.7-21.4,5.7-19.1,0-31.1-11.9-31.1-30.1,0-30.6,35.4-42.8,35.4-63.6s-6.8-13.8-15.4-14.8c4-6.4,8.2-10.7,14.8-9.8h0c16.5,2.3,17.8,21.6,18.1,52.7l-.3,59.6h0v.3h-.1Z"/>
  <path class="st0" d="M336.8,160.9l-.3-13.9c0-20.8,7.2-37.7,34.3-30.5v-4.2c-39.3-11-69.6,9.6-69.6,39.3l.3,9.3h-15.5v5.3h15.5v123.3h35.4v-123.3h19.4v-5.3h-19.5,0Z"/>
  <path class="st0" d="M439.2,281.6c-16.7.3-16.7-16-16.7-22v-93.7h2.6c10.9,0,16.9,6.3,31.5,18.5h.4l-.2-22.9h-34.2v-.6h0v-1.1c-.9-17.5-14.7-31.7-32.2-33h-2.7v34.3h-.5l-15.3.2v5h15.8v92.2c0,12.2,3.3,34,34.4,34,17.4.6,33.4-9.7,39.9-25.9h0l-3.1.2c-4.9,9.8-11.5,14.8-19.4,15h-.3v-.2h0Z"/>
  <path class="st0" d="M571,165.2c-2-1-4-2-6-2.7-7.7-3.2-16-4.6-24.3-4.3h-1.6c-5.5,0-10.9.6-16.3,1.8-29.1,6.7-50.9,31.4-50.9,67.2s27,65.2,61.4,65.2,42.8-13.2,56.4-33.9l-2.8-1.7c-11.2,15.3-25.1,21.5-38,21.5s-25.4-7-32.1-21.3h0c-.2-.4-.3-.9-.5-1.3-.4-1.1-.7-2.3-.9-3.5-.8-3-.8-6.2,0-9.3h0c0-.2,0-.4.2-.5.3-.9.8-1.8,1.4-2.6.2-.2.4-.5.5-.7,1.7-1.5,3.7-2.6,5.8-3.2h0c17.1-4.9,55.6,4.9,69.1-20.9,9.5-18.1,1.1-37.8-21.6-49.7h.2,0ZM566,192.4c-.4,3.5-1.5,7-3.2,10.1-7.8,14.9-23.7,18.1-36.1,22.7-.4.1-.9.3-1.3.5-.4.2-.8.3-1.2.5-11.9,5.5-12.1,15.5-12.1,16.7h0c-.2-.9-.4-1.9-.6-2.9s-.4-2.1-.5-3.2c-.9-6.1-1.3-12.2-1.3-18.3,0-29.3,8.4-48.9,22.6-54.9,3.1-1.3,6.5-2,9.9-2h2.2c6.2.7,24.5,5,21.5,30.5v.3h0Z"/>
  <path class="st0" d="M694.8,161c-18.3,1.1-31.6,14.9-37.8,38.3v.3-5.6c-.4-8.6-4-16.7-9.9-22.9-5.7-5.9-13.3-9.5-21.5-10.2h-2.7v128.3h35.1v-82.3c.2-.7.4-1.4.6-2.1.6-3.8,2.1-7.3,4.2-10.5h0c2.4-3.8,5.7-6.9,9.5-9.1,3.9-2.3,8.4-3.5,12.9-3.4,7.8,0,15.2,3.5,20.2,9.5h1.2v-30.3h-1.2c-1.8,0-6.2-.2-10.5,0h0Z"/>
  <path class="st0" d="M812.1,168.7c-10.8-6.3-24.9-10.5-37.4-10.2-32.5,0-57.4,18.2-57.4,45.2s10,31.3,26.1,38.5l4.1,1.7c8.3,3,17,4.5,25.8,4.3,12.5.2,24.9-2.9,35.8-9.1,5.6,4.1,6.6,9.4,3.8,13.7-11.4,17.1-70.2-13.2-93.1,21.2-13.4,20.1-6,44.3,19.3,61.1,12.6,8.6,27.6,12.9,42.9,12.2h2.4c.5,0,1.1,0,1.6-.1h.7c.4,0,.9,0,1.3-.1,46.2-5.1,51-45,51.3-57.2h-27.2c16.1,40.6-4.2,50-18.4,51.8-.8,0-1.5.1-2.2.2h-2.3c-9.5.5-18.9-2-26.8-7.2-15.9-10.6-19.2-27.2-9.1-42.3,17-25.4,53.2-16,64.7-33.3,5.3-7.9,1.6-16.2-5.8-21.9,11.4-7.5,18.3-20.2,18.3-33.9.2-11.7-4.8-22.9-13.6-30.6l-2-1.7h0c9.8-6,27.1.9,27.1.9v-24.3c-13.3.7-23.6,9.4-29.7,21.3l-.2-.2h0ZM774.2,244.5h0c-16.3,0-24.6-16.2-24.6-41.3s6.9-41.1,24.1-41.1,24.6,16.5,24.6,41.8-7.4,40.6-24.1,40.6Z"/>
  <path class="st0" d="M863.2,106h0v183.5h35.4v-149.3c-.2-9-3.9-17.6-10.3-23.9-6.6-6.6-15.6-10.3-24.9-10.3,0,0-.2,0-.2,0Z"/>
  <path class="st0" d="M974.7,160.9c-37.9,11.9-58.3,46.6-46.1,85.6,12.3,39.2,47.2,54.8,84.4,43.2,37.6-11.8,58.3-46.6,46.1-85.6-12.3-39.2-47.2-54.8-84.4-43.2h0ZM1013.1,286c-19.2,6-37.8-15.2-49.3-51.9-11.4-36.5-9.6-63.4,10.5-69.7,19.4-6.1,38.1,15.4,49.7,52.3,11.3,36,9.2,63-10.9,69.3Z"/>
  <path class="st0" d="M1623.9,201.1c-42.9-7.4-81.5-48.1-125-43.5-26.6,2.8-53,20.1-73,44.1-78.5,94.1-96.1-68.6-167.5-41.1-14.1,5.4-22.7,28.1-28.7,43.7l-16.7,38.1c-.7,1.6-2.9,1.7-3.7,0l-30-66.8c-3.9-9.4-13.6-16-23.8-16h-20.6l21.1,48.5-13.8,35.6-31.5-68.7c-3.9-9.4-13-15.5-23.2-15.5h-21l58.7,133.4h1.2l32-79,22.6,51.7c5.9,13.3,24.8,13.2,30.5-.2l15.4-42c11.9-29.5,21.1-38.2,37.1-38.2,28.1,0,56.9,66.5,88,71.5,35.9,5.7,49.1-24.9,71.3-46.8,23.7-23.5,49.4-38.4,76.4-34.4,37.8,5.6,69.1,50.9,91.6,55,17,3.1,36.7-6.3,42.7-28.6-3.4,0-6.8-.4-10.2-.9h0Z"/>
</svg>